<?xml version="1.0" encoding="UTF-8" standalone="no"?>
<svg
   xmlns:dc="http://purl.org/dc/elements/1.1/"
   xmlns:cc="http://creativecommons.org/ns#"
   xmlns:rdf="http://www.w3.org/1999/02/22-rdf-syntax-ns#"
   xmlns:svg="http://www.w3.org/2000/svg"
   xmlns="http://www.w3.org/2000/svg"
   version="1.1"
   id="svg869"
   xml:space="preserve"
   width="979.45331"
   height="798.47998"
   viewBox="0 0 979.45331 798.47998"><metadata
     id="metadata875"><rdf:RDF><cc:Work
         rdf:about=""><dc:format>image/svg+xml</dc:format><dc:type
           rdf:resource="http://purl.org/dc/dcmitype/StillImage" /><dc:title></dc:title></cc:Work></rdf:RDF></metadata><defs
     id="defs873" /><g
     id="g877"
     transform="matrix(1.3333333,0,0,-1.3333333,0,798.48)"><g
       id="g879"
       transform="scale(0.1)"><path
         d="M 379.887,121.102 C 263.246,194.922 170.785,293.609 102.48,417.141 34.1563,540.641 0,673.48 0,815.66 c 0,144.899 35.1914,277.73 105.586,398.51 70.379,120.75 165.941,216.66 286.707,287.76 120.77,71.07 252.223,106.6 394.387,106.6 103.515,0 203.203,-19.65 299.13,-58.98 95.92,-39.36 179.08,-99.06 249.47,-179.09 70.38,-80.05 120.07,-177.36 149.06,-291.89 L 1124.11,968.852 c -20.69,59.308 -62.09,111.788 -124.204,157.338 -62.113,45.54 -135.261,68.3 -219.437,68.3 -104.903,0 -192.203,-32.08 -261.875,-96.26 -69.711,-64.17 -104.551,-157.011 -104.551,-278.429 0,-81.449 16.566,-152.16 49.687,-212.199 33.114,-60.032 77.274,-105.571 132.489,-136.633 55.176,-31.059 115.222,-46.59 180.105,-46.59 57.973,0 111.801,12.43 161.469,37.262 49.687,24.847 90.737,55.55 123.187,92.129 32.42,36.55 53.46,71.421 63.13,104.55 L 1461.56,542.391 C 1444.99,445.762 1402.21,356.742 1333.21,275.34 1264.18,193.891 1178.62,129.379 1076.5,81.7813 974.352,34.1602 868.766,10.3398 759.754,10.3398 623.125,10.3398 496.492,47.25 379.887,121.102"
         style="fill:#1c294b;fill-opacity:1;fill-rule:nonzero;stroke:none"
         id="path881" /><path
         d="m 2171.63,391.27 c 33.12,22.062 59.32,51.402 78.66,87.98 19.31,36.551 28.98,75.551 28.98,116.949 0,56.59 -18.3,103.864 -54.85,141.821 -36.59,37.941 -82.48,56.929 -137.66,56.929 -60.76,0 -113.88,-21.418 -159.42,-64.168 -45.54,-42.801 -68.31,-93.883 -68.31,-153.191 0,-35.91 9.99,-71.11 30.02,-105.59 19.99,-34.508 46.22,-62.102 78.66,-82.809 32.42,-20.711 65.88,-31.05 100.4,-31.05 35.88,0 70.39,11.031 103.52,33.129 z m 136.64,-366.4302 -2.07,97.3012 c -37.27,-31.7699 -83.53,-57.2894 -138.71,-76.5902 -55.22,-19.3594 -111.8,-29 -169.75,-29 -91.09,0 -175.3,25.168 -252.57,75.5781 -77.32,50.3511 -138.71,118.3121 -184.25,203.9021 -45.55,85.559 -68.31,179.41 -68.31,281.559 0,103.512 23.44,198.012 70.38,283.609 46.89,85.571 111.43,152.831 193.57,201.841 82.08,48.98 172.85,73.5 272.22,73.5 53.83,0 104.55,-9 152.15,-26.92 47.62,-17.96 85.93,-42.79 114.91,-74.52 v 89.02 h 343.64 L 2687.1,24.8398 h -378.83"
         style="fill:#1c294b;fill-opacity:1;fill-rule:nonzero;stroke:none"
         id="path883" /><path
         d="M 3560.69,24.8398 V 604.492 c 0,57.969 -17.27,103.52 -51.76,136.629 -34.5,33.141 -81.45,49.688 -140.77,49.688 -98,0 -165.61,-51.079 -202.87,-153.18 l 8.26,-610.7188 -389.19,6.2109 -28.97,1660.2889 h 393.33 l 10.36,-693.5 c 41.4,46.9 95.23,84.87 161.46,113.85 66.26,28.97 133.18,43.48 200.82,43.48 126.96,0 228.03,-46.25 303.28,-138.71 75.2,-92.479 113.49,-217.37 114.9,-374.71 l 4.14,-618.9802 h -382.99"
         style="fill:#1c294b;fill-opacity:1;fill-rule:nonzero;stroke:none"
         id="path885" /><path
         d="m 4754.94,424.379 c 37.94,37.262 56.93,88.312 56.93,153.211 0,62.109 -17.95,114.531 -53.82,157.32 -35.91,42.77 -89.03,64.18 -159.4,64.18 -62.12,0 -113.53,-20.711 -154.24,-62.11 -40.72,-41.41 -61.07,-92.48 -61.07,-153.179 0,-62.11 21.39,-113.539 64.18,-154.242 42.77,-40.707 97.3,-61.079 163.53,-61.079 57.97,0 105.92,18.641 143.89,55.899 z M 4302.6,97.2813 c -89.72,53.8277 -160.43,125.9297 -212.19,216.3597 -51.76,90.359 -77.63,186.629 -77.63,288.781 0,113.148 29.3,211.168 87.99,293.976 58.63,82.801 132.49,145.582 221.5,188.382 89.03,42.76 179.08,64.17 270.16,64.17 118.68,0 222.2,-22.45 310.53,-67.27 88.32,-44.86 156.63,-108.688 204.96,-191.5 48.28,-82.809 72.45,-179.418 72.45,-289.828 0,-109.039 -25.56,-208.051 -76.59,-297.071 C 5052.7,214.27 4982.66,144.199 4893.64,93.1602 4804.63,42.0703 4706.29,16.5508 4598.65,16.5508 4491,16.5508 4392.3,43.4805 4302.6,97.2813"
         style="fill:#1c294b;fill-opacity:1;fill-rule:nonzero;stroke:none"
         id="path887" /><path
         d="m 5961.84,424.379 c 37.94,37.262 56.93,88.312 56.93,153.211 0,62.109 -17.95,114.531 -53.83,157.32 -35.91,42.77 -89.01,64.18 -159.39,64.18 -62.11,0 -113.54,-20.711 -154.24,-62.11 -40.71,-41.41 -61.08,-92.48 -61.08,-153.179 0,-62.11 21.4,-113.539 64.18,-154.242 42.78,-40.707 97.31,-61.079 163.55,-61.079 57.97,0 105.92,18.641 143.88,55.899 z M 5509.5,97.2813 c -89.72,53.8277 -160.43,125.9297 -212.19,216.3597 -51.75,90.359 -77.62,186.629 -77.62,288.781 0,113.148 29.28,211.168 87.98,293.976 58.64,82.801 132.49,145.582 221.51,188.382 89.01,42.76 179.06,64.17 270.16,64.17 118.68,0 222.18,-22.45 310.52,-67.27 88.31,-44.86 156.62,-108.688 204.96,-191.5 48.28,-82.809 72.45,-179.418 72.45,-289.828 0,-109.039 -25.55,-208.051 -76.6,-297.071 C 6259.61,214.27 6189.56,144.199 6100.54,93.1602 6011.52,42.0703 5913.18,16.5508 5805.55,16.5508 c -107.66,0 -206.35,26.9297 -296.05,80.7305"
         style="fill:#1c294b;fill-opacity:1;fill-rule:nonzero;stroke:none"
         id="path889" /><path
         d="M 7345.86,198.73 C 7300.31,131.09 7244.75,81.0508 7179.21,48.6406 7113.64,16.2422 7033.94,0 6940.1,0 c -125.6,0 -219.44,32.0898 -281.54,96.25 -62.11,64.191 -93.15,167.332 -93.15,309.512 0,40 3.42,92.437 10.33,157.316 l 29,238.082 h -163.56 l -14.48,327.1 219.44,4.14 28.98,242.2 368.49,18.64 -28.97,-256.7 231.86,4.14 39.33,-337.45 H 6975.3 l -20.7,-186.32 c -2.77,-24.828 -4.14,-42.781 -4.14,-53.832 0,-55.207 10.35,-98.687 31.04,-130.418 20.71,-31.758 48.3,-47.609 82.83,-47.609 34.46,0 64.84,7.57 91.08,22.781 26.19,15.168 55.19,42.066 86.95,80.727 l 103.5,-289.829"
         style="fill:#1c294b;fill-opacity:1;fill-rule:nonzero;stroke:none"
         id="path891" /><path
         d="m 4958.33,2077.41 c 0,-91.51 -565.4,-165.69 -1262.85,-165.69 -697.45,0 -1262.85,74.18 -1262.85,165.69 0,91.5 565.4,165.68 1262.85,165.68 697.45,0 1262.85,-74.18 1262.85,-165.68"
         style="fill:#d9d9d9;fill-opacity:1;fill-rule:nonzero;stroke:none"
         id="path893" /><path
         d="m 5118.63,4459.66 c 84.87,-28.74 162.86,-26.75 177.36,67.55 24.82,161.56 -333.42,385.83 -530.03,495.85 112.12,-0.35 191.74,22.12 130.26,101.43 -291.68,376.31 -932.77,308.94 -977.29,303.77 -1.1,0.19 -2.21,0.31 -3.31,0.49 98.04,65.94 356.48,255.96 224.08,345.98 -161.72,109.94 -413.83,-305.38 -413.83,-305.38 0,0 95.3,517.12 -69.03,488.62 -164.34,-28.51 -80.69,-459.66 -80.69,-459.66 0,0 -245.01,394.51 -389,292.71 -118.84,-84.01 166.23,-287.93 269.49,-356.64 -6.76,-0.97 -13.59,-1.75 -20.32,-2.81 -146.9,11.34 -682.24,27.51 -941.59,-307.08 -61.47,-79.31 18.15,-101.78 130.26,-101.43 -196.6,-110.02 -554.84,-334.29 -530.02,-495.85 14.5,-94.3 92.49,-96.29 177.35,-67.55 -135.92,-188.91 -332.12,-500.74 -249.61,-628.03 76.18,-117.51 195.53,2.19 274.57,108.86 0.67,-7.27 1.46,-14.57 2.21,-21.87 -63.85,-210.22 -174.11,-641.32 -40.03,-742.71 80.63,-60.97 140.2,2.03 181.39,89.62 28.26,-226.66 89.38,-516.25 218.78,-552.49 72.44,-20.28 108.87,19.15 125.41,80.4 11.47,-11.07 42.45,-97.14 54.39,-107.79 116.94,-225.43 191.79,-525.2 393.17,-525.2 148.48,0 188.09,90.73 283.25,336.37 77.46,225.72 243.43,208.01 303.17,19.92 163.98,-516.21 429.32,-371.94 471.36,-316.46 66.93,88.32 302.19,608.32 310.22,616.58 13.33,-74.2 49.38,-126.6 130.73,-103.82 129.39,36.24 190.52,325.83 218.78,552.49 41.19,-87.59 100.76,-150.59 181.39,-89.62 144.17,109.03 5.78,599.48 -53.57,786.37 78.11,-110.83 208.89,-256.26 290.31,-130.65 82.51,127.29 -113.68,439.12 -249.61,628.03"
         style="fill:#53c1e4;fill-opacity:1;fill-rule:nonzero;stroke:none"
         id="path895" /><path
         d="m 5118.63,4459.63 c 84.87,-28.74 162.86,-26.75 177.36,67.55 24.82,161.56 -333.42,385.83 -530.03,495.85 112.12,-0.35 191.74,22.12 130.26,101.43 -291.68,376.31 -932.77,308.94 -977.29,303.77 -1.1,0.19 -2.21,0.31 -3.31,0.49 98.04,65.94 356.48,255.97 224.08,345.99 -161.72,109.93 -413.83,-305.39 -413.83,-305.39 0,0 95.3,517.12 -69.03,488.61 -164.34,-28.5 -80.69,-459.65 -80.69,-459.65 0,0 -245.01,394.51 -389,292.71 -118.84,-84.02 166.23,-287.93 269.49,-356.64 -6.76,-0.97 -13.59,-1.75 -20.32,-2.81 -146.9,11.34 -682.24,27.51 -941.59,-307.08 -61.47,-79.31 18.15,-101.78 130.26,-101.43 -196.6,-110.02 -554.84,-334.29 -530.02,-495.85 14.5,-94.3 92.49,-96.29 177.35,-67.55 -135.92,-188.91 -332.12,-500.74 -249.61,-628.02 76.18,-117.52 195.53,2.18 274.57,108.85 0.67,-7.27 1.46,-14.58 2.21,-21.87 -63.85,-210.22 -174.11,-641.32 -40.03,-742.71 80.63,-60.97 140.2,2.03 181.39,89.61 28.26,-226.65 89.38,-516.24 218.78,-552.48 72.44,-20.29 108.87,19.15 125.41,80.4 11.47,-11.08 42.45,-97.15 54.39,-107.79 116.94,-225.43 191.79,-525.2 393.17,-525.2 148.48,0 188.09,90.73 283.25,336.37 77.46,225.71 243.43,208.01 303.17,19.91 163.98,-516.2 429.32,-371.93 471.36,-316.45 66.93,88.32 302.19,608.31 310.22,616.58 13.33,-74.19 49.38,-126.6 130.73,-103.82 129.39,36.24 190.52,325.83 218.78,552.48 41.19,-87.58 100.76,-150.58 181.39,-89.61 144.17,109.03 43.6,491.17 -15.77,678.05 78.13,-110.83 171.09,-147.94 252.51,-22.32 82.51,127.28 -113.68,439.11 -249.61,628.02"
         style="fill:#53c1e4;fill-opacity:1;fill-rule:nonzero;stroke:none"
         id="path897" /><path
         d="m 3409.52,2328.33 c -200.82,0 -275.81,298.14 -392.21,523.35 -0.64,1.24 -1.41,2.21 -2.31,3.28 -8.13,9.72 -22.9,45.8 -35.42,73.51 -5.75,12.73 -23.49,12.59 -29.57,0.02 -20.03,-41.45 -55.03,-63.94 -113.45,-47.57 -120.18,33.65 -181.47,285.85 -212.23,503.19 -2.14,15.14 -21.8,18.95 -29.95,6 -39.35,-62.58 -91.51,-96.6 -157.99,-46.32 -121.19,91.64 -42.76,452.64 20.58,676.45 6.36,22.45 -21.84,38.22 -37.59,21 -72.81,-79.6 -159.69,-134.36 -219.74,-41.73 -77.35,119.33 90.24,400.85 223.49,591.23 8.48,12.12 -2.35,27.92 -16.85,24.99 -66.89,-13.51 -122.38,1.3 -134.38,79.36 -4.25,27.7 2.8,57.25 18.36,87.75 8.04,15.78 -10.8,31.46 -24.62,20.39 -114.26,-91.49 -201.13,-190.11 -188.47,-272.45 11.99,-78.05 67.49,-92.87 134.37,-79.36 14.5,2.93 25.33,-12.87 16.85,-24.99 -133.25,-190.38 -300.84,-471.9 -223.49,-591.23 60.06,-92.63 146.93,-37.87 219.74,41.73 20.37,-11.38 17.22,-9.62 37.59,-21 -63.34,-223.8 -141.77,-584.81 -20.59,-676.45 66.49,-50.28 118.66,-16.26 158.01,46.32 8.14,12.95 27.8,9.14 29.94,-6 30.76,-217.34 92.05,-469.54 212.23,-503.19 58.42,-16.36 93.42,6.12 113.46,47.57 6.08,12.57 23.81,12.7 29.56,-0.02 12.52,-27.71 27.3,-63.79 35.42,-73.51 0.9,-1.07 1.67,-2.04 2.31,-3.27 116.4,-225.22 191.38,-523.37 392.21,-523.37 106.79,0 157.29,47.33 212.61,165.04 -5.86,-0.32 -11.63,-0.72 -17.87,-0.72"
         style="fill:#3198cc;fill-opacity:1;fill-rule:nonzero;stroke:none"
         id="path899" /><path
         d="m 2624.99,5023.06 c 0,0 -66.85,50.25 31.5,147.63 48.01,47.52 300.96,220.65 300.96,220.65 0,0 -357.1,-136.54 -444.84,-280.71 -87.74,-144.17 112.38,-87.57 112.38,-87.57"
         style="fill:#3198cc;fill-opacity:1;fill-rule:nonzero;stroke:none"
         id="path901" /><path
         d="m 4777.62,5023.06 c 0,0 66.85,50.25 -31.5,147.63 -48.01,47.52 -300.96,220.65 -300.96,220.65 0,0 357.11,-136.54 444.84,-280.71 87.74,-144.17 -112.38,-87.57 -112.38,-87.57"
         style="fill:#3198cc;fill-opacity:1;fill-rule:nonzero;stroke:none"
         id="path903" /><path
         d="m 3341.03,5740.07 c 0,0 -97.39,31.9 -95.91,-18.26 1.49,-50.16 110.41,-187.06 110.41,-187.06 0,0 -210.51,155.89 -195.97,215.32 14.53,59.42 100.3,66.39 181.47,-10"
         style="fill:#3198cc;fill-opacity:1;fill-rule:nonzero;stroke:none"
         id="path905" /><path
         d="m 3981.05,5731.59 c 0,0 111.91,3.26 110.41,-46.89 -1.48,-50.16 -110.41,-187.06 -110.41,-187.06 0,0 210.52,155.89 195.98,215.31 -14.53,59.42 -114.8,95.03 -195.98,18.64"
         style="fill:#3198cc;fill-opacity:1;fill-rule:nonzero;stroke:none"
         id="path907" /><path
         d="m 3956.88,2300.13 c 201.38,0 276.22,299.77 393.17,525.2 11.93,10.64 42.92,96.71 54.38,107.78 16.56,-61.25 52.97,-100.68 125.41,-80.4 129.41,36.24 222.75,120.29 251,346.94 41.19,-87.58 68.55,54.96 149.18,115.93 134.07,101.4 23.82,532.49 -40.03,742.72 0.75,7.29 57.27,-53.49 57.94,-46.22 117.41,-90.16 195.94,-83.13 218.84,-40.77 72.13,133.44 -113.68,439.11 -249.61,628.03 84.86,-28.75 162.85,-26.75 177.34,67.54 8.12,52.81 -24.83,112.32 -79.55,172.34 152.75,-107.5 289.97,-234.58 274.29,-336.64 -14.48,-94.3 -92.48,-96.3 -177.35,-67.55 135.93,-188.91 332.12,-500.74 249.61,-628.03 -76.18,-117.51 -157.35,-53.88 -236.38,52.79 -0.69,-7.26 -18.36,-31.3 -19.1,-38.59 63.84,-210.22 152.82,-568.54 18.75,-669.92 -80.64,-60.97 -140.21,2.03 -181.4,89.61 -28.25,-226.65 -89.39,-516.25 -218.78,-552.48 -72.44,-20.29 -108.87,19.15 -125.41,80.39 -11.48,-11.07 -42.46,-97.14 -54.4,-107.78 -116.93,-225.43 -191.78,-525.2 -393.16,-525.2 -106.78,0 -157.28,47.31 -212.61,165.03 5.86,-0.32 11.64,-0.72 17.87,-0.72"
         style="fill:#3198cc;fill-opacity:1;fill-rule:nonzero;stroke:none"
         id="path909" /><path
         d="m 5172.14,4423.14 c 38.63,-5.5 70.4,-0.89 94.76,13.9 27.88,16.94 45.21,46.13 51.43,86.74 23.17,150.72 -231.55,338.44 -475.09,481.11 49.64,7.02 79.2,22.44 91.3,47.08 12,24.35 5.11,53.41 -20.45,86.38 -246.54,318.04 -725.34,328.78 -919.51,318.63 95.36,71.36 204.49,171.17 204.69,254.49 0.07,22.82 -8.02,55.57 -46.86,81.98 -30.77,20.91 -66,27.25 -104.79,18.84 -106.02,-23.05 -218.58,-156.47 -284.27,-246.88 15.68,124.93 28.82,326.08 -36.63,392.22 -19.57,19.77 -45.05,27.57 -73.75,22.62 -30.93,-5.37 -56.44,-22.34 -75.83,-50.46 -54.46,-78.96 -48.59,-235.93 -37.37,-338.45 -64.34,87.34 -173.95,216.25 -272.9,236.3 -34.66,7 -65.84,0.89 -92.78,-18.15 -25.28,-17.87 -38.43,-42.36 -38.03,-70.84 1.24,-86.98 136.45,-201.66 247.55,-281.34 -203.13,8.47 -667.07,-9.73 -906.77,-318.96 -25.54,-32.97 -32.42,-62.03 -20.44,-86.38 12.13,-24.64 41.68,-40.06 91.32,-47.08 -243.53,-142.68 -498.26,-330.39 -475.1,-481.11 6.25,-40.61 23.56,-69.8 51.44,-86.74 24.34,-14.79 56.06,-19.4 94.75,-13.9 -150.46,-216.92 -295.04,-480.45 -215.08,-603.81 24.54,-37.85 55.4,-57.62 91.72,-58.76 47.27,-1.52 102.13,30.67 162.15,95.82 -79.66,-280.26 -136.55,-604.18 -11.78,-698.53 33.32,-25.2 66.58,-34.02 98.95,-25.98 29.73,7.34 57.38,28.99 82.6,64.57 44.87,-305.85 120.86,-475.7 226.17,-505.2 36.18,-10.11 67.59,-7.84 93.36,6.81 16.11,9.17 29.63,23 40.43,41.31 1.16,-2.58 2.26,-5.1 3.29,-7.42 14.69,-33.36 22.51,-50.26 30.1,-59.36 25.41,-49.26 49.25,-102.94 72.31,-154.89 82.93,-186.74 168.68,-379.87 339.57,-379.87 168.44,0 213.86,117.24 304.65,351.65 32.24,93.93 83.5,149.86 137.29,149.86 h 0.9 c 50.09,-0.57 96.84,-50.19 122.03,-129.45 93.56,-294.56 220.65,-374.91 310.78,-390.42 13.02,-2.22 25.68,-3.24 37.89,-3.24 81.32,0 142.93,44.88 162.26,70.38 49.06,64.75 180.19,342.52 258.53,508.49 10.12,21.41 19.99,42.35 28.43,60.11 11.16,-24.81 26.2,-43.23 45,-55.01 26.45,-16.57 59.09,-19.62 97.07,-8.95 105.3,29.5 181.27,199.33 226.14,505.23 25.23,-35.61 52.88,-57.26 82.62,-64.6 32.26,-8.06 65.62,0.76 98.98,25.98 127.57,96.5 62.17,437 -10.07,692.66 -5.1,-6.26 -11.08,-11.85 -18.58,-16.65 -6.68,-4.26 -14.12,-6.59 -21.75,-7.95 76.93,-278.94 115.83,-561.81 23.09,-631.96 -22.25,-16.84 -42.06,-22.71 -60.84,-18.16 -29.38,7.25 -59.3,41.62 -86.44,99.36 -4.29,9.11 -14.06,14.41 -24.04,12.71 -9.94,-1.57 -17.64,-9.55 -18.88,-19.53 -39.73,-318.62 -111.61,-508.09 -202.43,-533.52 -25.51,-7.12 -45.44,-5.92 -60.84,3.71 -19.99,12.53 -33.95,40.23 -41.53,82.33 -1.49,8.35 -7.53,15.16 -15.63,17.63 -8.16,2.48 -16.93,0.22 -22.86,-5.85 -4.36,-4.51 -4.94,-5.08 -58.35,-118.23 -72.5,-153.6 -207.46,-439.48 -253.68,-500.46 -13.76,-18.15 -76.34,-63.66 -156.42,-49.9 -77.77,13.39 -188.65,86.64 -275.33,359.53 -31.77,99.99 -93.32,160.19 -164.63,161 h -1.49 c -75.08,0 -140.64,-65.66 -179.71,-179.6 -96.8,-249.86 -130.57,-321.9 -262.16,-321.9 -141.48,0 -217.62,171.47 -298.23,352.98 -23.75,53.49 -48.3,108.8 -74.87,160.01 -1.26,2.43 -2.01,3.67 -4.06,5.48 -4.41,5.44 -15.84,31.44 -23.42,48.62 -15.97,36.27 -23.27,51.81 -31.28,59.54 -5.76,5.56 -14.08,7.66 -21.73,5.52 -7.71,-2.14 -13.72,-8.18 -15.81,-15.9 -8.46,-31.33 -21.47,-52.16 -38.66,-61.95 -14.9,-8.46 -34.67,-9.32 -58.81,-2.56 -90.82,25.43 -162.72,214.9 -202.43,533.52 -1.25,9.98 -8.96,17.96 -18.9,19.53 -9.92,1.7 -19.74,-3.58 -24.02,-12.71 -27.16,-57.74 -57.05,-92.11 -86.44,-99.36 -18.72,-4.55 -38.58,1.32 -60.84,18.16 -86.61,65.5 -68.65,333.95 48.04,718.09 0.87,2.87 1.16,5.9 0.85,8.89 l -2.19,21.64 c -0.86,9.33 -7.4,17.17 -16.44,19.69 -8.97,2.48 -18.66,-0.77 -24.25,-8.32 -71.86,-96.97 -135.87,-150.11 -182.24,-148.16 -20.91,0.65 -38.96,13.13 -55.17,38.15 -55.59,85.75 35.16,305.36 248.97,602.51 5.75,7.98 5.68,18.75 -0.16,26.66 -5.84,7.89 -16.11,11.12 -25.45,7.98 -53.06,-18 -93.68,-19.83 -117.51,-5.38 -16.15,9.82 -26.04,27.79 -30.21,54.94 -16.16,105.19 177.74,281.88 518.7,472.67 8.99,5.03 13.46,15.51 10.84,25.48 -2.61,9.95 -11.6,16.88 -21.88,16.88 h -0.07 c -109.63,-0.21 -125.74,21.82 -127.94,26.27 -3.48,7.1 2.35,21.56 15.62,38.68 250.8,323.55 769.1,310.21 921.96,298.38 1.75,-0.13 3.52,-0.06 5.25,0.21 3.84,0.6 7.7,1.11 11.56,1.62 l 8.48,1.15 c 9.29,1.33 16.78,8.25 18.86,17.41 2.07,9.15 -1.73,18.63 -9.55,23.82 -176.72,117.58 -287.04,227.2 -287.86,286.08 -0.13,8.44 1.71,21.09 18.89,33.25 16.6,11.7 35.47,15.25 57.69,10.74 107.47,-21.75 252.3,-221.71 299.05,-296.91 5.75,-9.29 17.32,-13.13 27.48,-9.12 10.15,3.98 16.02,14.65 13.95,25.36 -15.91,82.15 -44.06,314.41 16.02,401.5 12.4,17.98 27.55,28.31 46.31,31.55 14.18,2.44 24.66,-0.56 33.86,-9.85 56.73,-57.32 35.66,-307.89 9.06,-452.37 -1.97,-10.74 4.01,-21.35 14.19,-25.24 10.24,-3.87 21.73,0.09 27.4,9.4 1.68,2.8 171.46,279.94 312.04,310.48 26.51,5.77 49.32,1.81 69.71,-12.06 24.33,-16.52 27.11,-33.28 27.06,-44.44 -0.12,-58.85 -96.34,-160.02 -251.02,-264.06 -7.67,-5.16 -11.44,-14.46 -9.5,-23.51 1.94,-9.03 9.18,-15.99 18.29,-17.55 l 3.3,-0.49 c 2.13,-0.38 4.33,-0.46 6.44,-0.18 27.28,3.15 671.2,73.29 956.82,-295.17 13.27,-17.12 19.1,-31.59 15.61,-38.69 -2.18,-4.41 -18.37,-26.26 -125.41,-26.26 -0.86,0 -1.81,-0.07 -2.58,0 -10.28,0 -19.26,-6.93 -21.87,-16.88 -2.63,-9.97 1.84,-20.45 10.82,-25.48 340.96,-190.79 534.87,-367.48 518.7,-472.67 -4.18,-27.15 -14.05,-45.12 -30.2,-54.94 -23.83,-14.44 -64.49,-12.59 -117.54,5.38 -9.17,3.13 -19.57,-0.07 -25.43,-7.98 -5.86,-7.91 -5.92,-18.68 -0.18,-26.66 213.82,-297.15 304.57,-516.76 248.99,-602.51 -16.39,-25.27 -34.66,-37.75 -55.87,-38.16 -33.65,-1.06 -77.48,27.44 -126.89,81.26 -4.49,-2.36 -9.71,-4.31 -15.26,-5.86 -0.42,-1.22 -0.79,-2.45 -1.22,-3.66 -3.37,-9.45 -7.59,-17.71 -13.07,-24.96 57.16,-61.04 109.18,-92.03 155.32,-92.03 0.68,0 1.34,0 2.01,0.01 36.84,0.71 68.12,20.5 92.94,58.79 79.97,123.36 -64.62,386.89 -215.08,603.81"
         style="fill:#1c294b;fill-opacity:1;fill-rule:nonzero;stroke:none"
         id="path911" /><path
         d="m 3624.44,4309.79 c 0,-278.85 -226.05,-504.91 -504.9,-504.91 -278.85,0 -504.91,226.06 -504.91,504.91 0,278.85 226.06,504.9 504.91,504.9 278.85,0 504.9,-226.05 504.9,-504.9"
         style="fill:#ffffff;fill-opacity:1;fill-rule:nonzero;stroke:none"
         id="path913" /><path
         d="m 3119.54,4789.24 c -264.36,0 -479.45,-215.09 -479.45,-479.46 0,-264.36 215.09,-479.44 479.45,-479.44 264.37,0 479.45,215.08 479.45,479.44 0,264.37 -215.08,479.46 -479.45,479.46 z m 0,-1009.8 c -292.43,0 -530.35,237.92 -530.35,530.34 0,292.44 237.92,530.36 530.35,530.36 292.43,0 530.35,-237.92 530.35,-530.36 0,-292.42 -237.92,-530.34 -530.35,-530.34"
         style="fill:#1c294b;fill-opacity:1;fill-rule:nonzero;stroke:none"
         id="path915" /><path
         d="m 3245.12,4528.05 c -40.23,0 -77.8,-11.08 -110.17,-30.08 33.24,-8.41 57.94,-38.27 57.94,-74.12 0,-42.37 -34.34,-76.71 -76.71,-76.71 -32.63,0 -60.32,20.46 -71.41,49.18 -11.47,-26.55 -17.91,-55.78 -17.91,-86.54 0,-120.54 97.72,-218.26 218.26,-218.26 120.54,0 218.26,97.72 218.26,218.26 0,120.55 -97.72,218.27 -218.26,218.27"
         style="fill:#1c294b;fill-opacity:1;fill-rule:nonzero;stroke:none"
         id="path917" /><path
         d="m 4780.84,4309.79 c 0,-278.85 -226.06,-504.91 -504.9,-504.91 -278.86,0 -504.92,226.06 -504.92,504.91 0,278.85 226.06,504.9 504.92,504.9 278.84,0 504.9,-226.05 504.9,-504.9"
         style="fill:#ffffff;fill-opacity:1;fill-rule:nonzero;stroke:none"
         id="path919" /><path
         d="m 4275.94,4789.24 c -264.38,0 -479.47,-215.09 -479.47,-479.46 0,-264.36 215.09,-479.44 479.47,-479.44 264.36,0 479.45,215.08 479.45,479.44 0,264.37 -215.09,479.46 -479.45,479.46 z m 0,-1009.8 c -292.44,0 -530.36,237.92 -530.36,530.34 0,292.44 237.92,530.36 530.36,530.36 292.43,0 530.35,-237.92 530.35,-530.36 0,-292.42 -237.92,-530.34 -530.35,-530.34"
         style="fill:#1c294b;fill-opacity:1;fill-rule:nonzero;stroke:none"
         id="path921" /><path
         d="m 2757.73,4904.14 c -36.6,73.32 227.24,324.75 313.34,210.3 64.01,-85.08 -42.16,-93.39 -110.53,-121.57 -64.63,-26.65 -166.02,-162.42 -202.81,-88.73"
         style="fill:#1c294b;fill-opacity:1;fill-rule:nonzero;stroke:none"
         id="path923" /><path
         d="m 4668.71,4900.12 c 36.6,73.32 -227.26,324.76 -313.35,210.31 -64.01,-85.09 42.17,-93.39 110.54,-121.58 64.63,-26.64 166.01,-162.42 202.81,-88.73"
         style="fill:#1c294b;fill-opacity:1;fill-rule:nonzero;stroke:none"
         id="path925" /><path
         d="m 3341.03,3749.34 c 0,0 111.56,-66.39 283.41,-66.39 190.16,0 314.57,66.39 314.57,66.39 0,0 -19.95,-377.92 -289.12,-376.2 -310.41,1.98 -308.86,376.2 -308.86,376.2"
         style="fill:#1c294b;fill-opacity:1;fill-rule:nonzero;stroke:none"
         id="path927" /><path
         d="m 3463.38,3531 c 0,0 87.86,73.02 197.24,66.39 109.39,-6.64 166.15,-53.85 166.15,-53.85 0,0 -44.71,-109.34 -176.01,-109.91 -105.03,-0.46 -151,50.9 -187.38,97.37"
         style="fill:#e73b5e;fill-opacity:1;fill-rule:nonzero;stroke:none"
         id="path929" /><path
         d="m 3519.32,3476.73 c 0,0 75.15,86.05 184.2,96.86 24.16,2.4 45.95,2.33 65.44,0.91 -26.94,10.43 -63.05,20.14 -108.34,22.89 -109.38,6.63 -197.24,-66.4 -197.24,-66.4 18.99,-24.25 40.69,-49.77 71.94,-68.63 -5.52,4.77 -10.84,9.59 -16,14.37"
         style="fill:#cc1e49;fill-opacity:1;fill-rule:nonzero;stroke:none"
         id="path931" /><path
         d="m 4574.77,3597.81 c 0,-60.91 -81.76,-110.29 -182.63,-110.29 -100.87,0 -182.64,49.38 -182.64,110.29 0,60.91 81.77,110.3 182.64,110.3 100.87,0 182.63,-49.39 182.63,-110.3"
         style="fill:#1e8bbb;fill-opacity:1;fill-rule:nonzero;stroke:none"
         id="path933" /><path
         d="m 3198.76,3561.24 c 0,-60.91 -81.76,-110.3 -182.63,-110.3 -100.87,0 -182.64,49.39 -182.64,110.3 0,60.91 81.77,110.29 182.64,110.29 100.87,0 182.63,-49.38 182.63,-110.29"
         style="fill:#1e8bbb;fill-opacity:1;fill-rule:nonzero;stroke:none"
         id="path935" /><path
         d="m 4141.43,4528.05 c 40.23,0 77.8,-11.08 110.16,-30.08 -33.23,-8.41 -57.94,-38.27 -57.94,-74.12 0,-42.37 34.35,-76.71 76.72,-76.71 32.63,0 60.31,20.46 71.41,49.18 11.47,-26.55 17.91,-55.78 17.91,-86.54 0,-120.54 -97.73,-218.26 -218.26,-218.26 -120.55,0 -218.27,97.72 -218.27,218.26 0,120.55 97.72,218.27 218.27,218.27"
         style="fill:#1c294b;fill-opacity:1;fill-rule:nonzero;stroke:none"
         id="path937" /><path
         d="m 3126,5283.63 c -1.45,1.71 -131.44,158.3 -155.81,463.48 49.66,16.11 85.6,62.7 85.6,117.73 0,68.37 -55.43,123.8 -123.8,123.8 -68.37,0 -123.8,-55.43 -123.8,-123.8 0,-58.1 40.08,-106.71 94.06,-120.05 25.07,-330.22 165.77,-497.85 172.34,-505.46 6.7,-7.75 16.14,-11.72 25.64,-11.72 7.83,0 15.71,2.69 22.11,8.21 14.2,12.19 15.81,33.6 3.66,47.81"
         style="fill:#1c294b;fill-opacity:1;fill-rule:nonzero;stroke:none"
         id="path939" /><path
         d="m 4175.4,5283.63 c 1.45,1.71 131.45,158.3 155.8,463.48 -49.66,16.11 -85.6,62.7 -85.6,117.73 0,68.37 55.43,123.8 123.8,123.8 68.38,0 123.81,-55.43 123.81,-123.8 0,-58.1 -40.08,-106.71 -94.06,-120.05 -25.08,-330.22 -165.78,-497.85 -172.34,-505.46 -6.7,-7.75 -16.15,-11.72 -25.65,-11.72 -7.83,0 -15.7,2.69 -22.11,8.21 -14.19,12.19 -15.81,33.6 -3.65,47.81"
         style="fill:#1c294b;fill-opacity:1;fill-rule:nonzero;stroke:none"
         id="path941" /><path
         d="m 2982.43,3275.83 c 0,0 -18.63,-152.36 13.48,-304.74 44.33,-210.41 -184.97,-226.81 -264.31,-124.24 -162.55,210.12 -144.35,560.58 -144.35,560.58"
         style="fill:#53c1e4;fill-opacity:1;fill-rule:nonzero;stroke:none"
         id="path943" /><path
         d="m 2869.77,2865.78 c -184.54,173.66 -252.23,484.73 -265.44,554.48 l -11.07,3.68 c 0,0 -18.2,-350.45 144.36,-560.58 47.79,-61.78 149.93,-80.3 213.96,-39.35 -30.16,6.42 -59.07,20.36 -81.81,41.77"
         style="fill:#3198cc;fill-opacity:1;fill-rule:nonzero;stroke:none"
         id="path945" /><path
         d="m 4782.35,3670.19 c 0,0 131.29,53.3 273.85,161.68 133.85,101.75 316.2,10.11 218.98,-174.16 -55.83,-105.79 -296.49,-365.7 -484.64,-417.58"
         style="fill:#53c1e4;fill-opacity:1;fill-rule:nonzero;stroke:none"
         id="path947" /><path
         d="m 4787.85,3213.31 c -10.75,1.07 -20.25,8.6 -23.31,19.67 -3.94,14.34 4.47,29.18 18.84,33.15 182.39,50.28 417.53,308.59 467.95,404.16 34.37,65.13 32.37,120.89 -5.48,152.98 -36.74,31.15 -108.07,36.72 -173.35,-12.84 -143.73,-109.32 -274.52,-162.98 -280.02,-165.22 -13.82,-5.58 -29.52,1.08 -35.1,14.83 -5.6,13.79 1.03,29.51 14.82,35.12 1.29,0.53 129.95,53.44 267.67,158.18 77.58,58.99 178.84,63.6 240.84,11.05 57.98,-49.14 64.82,-131.11 18.3,-219.25 -55.2,-104.65 -301.86,-376 -501.32,-431 -3.3,-0.9 -6.63,-1.15 -9.84,-0.83"
         style="fill:#1c294b;fill-opacity:1;fill-rule:nonzero;stroke:none"
         id="path949" /><path
         d="m 5176.26,3632.42 c -7.98,0.79 -15.52,5.13 -20.14,12.43 -7.93,12.58 -4.19,29.21 8.37,37.16 0.69,0.44 59.77,38.53 76.03,88.63 4.59,14.17 19.88,21.9 33.95,17.34 14.17,-4.59 21.93,-19.8 17.34,-33.96 -22.36,-68.9 -95.4,-115.63 -98.49,-117.58 -5.29,-3.33 -11.3,-4.6 -17.06,-4.02"
         style="fill:#1c294b;fill-opacity:1;fill-rule:nonzero;stroke:none"
         id="path951" /><path
         d="m 5113.15,3717.91 c -7.97,0.8 -15.51,5.14 -20.12,12.44 -7.95,12.59 -4.19,29.24 8.39,37.17 1.46,0.95 59.84,38.84 75.99,88.63 4.59,14.16 19.78,21.9 33.96,17.33 14.17,-4.59 21.92,-19.79 17.33,-33.96 -22.35,-68.92 -95.4,-115.63 -98.49,-117.58 -5.29,-3.33 -11.28,-4.6 -17.06,-4.03"
         style="fill:#1c294b;fill-opacity:1;fill-rule:nonzero;stroke:none"
         id="path953" /><path
         d="m 2850.76,2775.15 c -59.34,0 -119.95,26.06 -155.33,71.78 -166.75,215.56 -150.71,563.75 -149.95,578.48 0.77,14.85 13.14,26.01 28.31,25.52 14.86,-0.77 26.29,-13.45 25.53,-28.31 -0.17,-3.41 -15.63,-343.12 138.76,-542.69 36,-46.58 112.18,-64.8 166.24,-39.76 47.18,21.81 65.06,72.21 50.37,141.94 -32.66,154.99 -14.64,307.18 -13.87,313.58 1.83,14.76 15.35,25.32 30.03,23.46 14.78,-1.78 25.3,-15.23 23.5,-30.01 -0.19,-1.47 -17.67,-149.97 13.1,-295.9 28.56,-135.53 -46.77,-186.42 -80.51,-202.01 -23.57,-10.9 -49.75,-16.08 -76.18,-16.08"
         style="fill:#1c294b;fill-opacity:1;fill-rule:nonzero;stroke:none"
         id="path955" /><path
         d="m 2838.65,2783.73 c -6.36,0 -12.76,2.25 -17.89,6.82 -54.14,48.12 -67.62,133.77 -68.17,137.4 -2.2,14.72 7.92,28.45 22.64,30.68 14.66,2.3 28.42,-7.9 30.67,-22.59 v 0 c 0.12,-0.7 11.26,-70.17 50.67,-105.2 11.12,-9.88 12.14,-26.93 2.24,-38.05 -5.31,-6 -12.72,-9.06 -20.16,-9.06"
         style="fill:#1c294b;fill-opacity:1;fill-rule:nonzero;stroke:none"
         id="path957" /><path
         d="m 2942.27,2807.22 c -6.38,0 -12.76,2.24 -17.91,6.81 -54.11,48.12 -67.58,133.77 -68.13,137.4 -2.21,14.73 7.91,28.45 22.64,30.68 14.67,2.26 28.42,-7.88 30.67,-22.59 v 0 c 0.12,-0.7 11.26,-70.17 50.66,-105.19 11.13,-9.91 12.13,-26.95 2.23,-38.08 -5.34,-5.98 -12.72,-9.03 -20.16,-9.03"
         style="fill:#1c294b;fill-opacity:1;fill-rule:nonzero;stroke:none"
         id="path959" /><path
         d="m 1769.07,3290.51 30.8,-78.13 c 2.94,-7.45 8.84,-13.35 16.29,-16.29 l 78.13,-30.8 c 24.4,-9.62 24.4,-44.16 0,-53.79 l -78.13,-30.8 c -7.45,-2.94 -13.35,-8.84 -16.29,-16.29 l -30.8,-78.13 c -9.63,-24.4 -44.17,-24.4 -53.79,0 l -30.8,78.13 c -2.94,7.45 -8.84,13.35 -16.29,16.29 l -78.13,30.8 c -24.41,9.63 -24.41,44.17 0,53.79 l 78.13,30.8 c 7.45,2.94 13.35,8.84 16.29,16.29 l 30.8,78.13 c 9.62,24.4 44.16,24.4 53.79,0"
         style="fill:#f49c44;fill-opacity:1;fill-rule:nonzero;stroke:none"
         id="path961" /><path
         d="m 5332.01,5687.02 33.64,-85.32 c 3.21,-8.14 9.65,-14.59 17.79,-17.79 l 85.32,-33.65 c 26.66,-10.51 26.66,-48.22 0,-58.73 l -85.32,-33.64 c -8.14,-3.21 -14.58,-9.65 -17.79,-17.79 l -33.64,-85.33 c -10.51,-26.65 -48.23,-26.65 -58.74,0 l -33.64,85.33 c -3.2,8.14 -9.65,14.58 -17.78,17.79 l -85.33,33.64 c -26.66,10.51 -26.66,48.22 0,58.73 l 85.33,33.65 c 8.13,3.2 14.58,9.65 17.78,17.79 l 33.64,85.32 c 10.51,26.65 48.23,26.65 58.74,0"
         style="fill:#f49c44;fill-opacity:1;fill-rule:nonzero;stroke:none"
         id="path963" /><path
         d="m 1729.22,5130.39 44.2,-112.1 c 4.22,-10.7 12.68,-19.16 23.38,-23.38 l 112.1,-44.2 c 35.02,-13.8 35.02,-63.36 0,-77.17 l -112.1,-44.2 c -10.7,-4.21 -19.16,-12.68 -23.38,-23.37 l -44.2,-112.1 c -13.8,-35.02 -63.36,-35.02 -77.17,0 l -44.2,112.1 c -4.21,10.69 -12.67,19.16 -23.37,23.37 l -112.1,44.2 c -35.02,13.81 -35.02,63.37 0,77.17 l 112.1,44.2 c 10.7,4.22 19.16,12.68 23.37,23.38 l 44.2,112.1 c 13.81,35.02 63.37,35.02 77.17,0"
         style="fill:#53c1e4;fill-opacity:1;fill-rule:nonzero;stroke:none"
         id="path965" /><path
         d="m 5779.38,4656.54 25.83,-65.52 c 2.47,-6.25 7.42,-11.19 13.67,-13.65 l 65.51,-25.83 c 20.46,-8.07 20.46,-37.04 0,-45.11 l -65.51,-25.83 c -6.25,-2.46 -11.2,-7.41 -13.67,-13.66 l -25.83,-65.51 c -8.06,-20.47 -37.03,-20.47 -45.09,0 l -25.83,65.51 c -2.47,6.25 -7.42,11.2 -13.67,13.66 l -65.51,25.83 c -20.46,8.07 -20.46,37.04 0,45.11 l 65.51,25.83 c 6.25,2.46 11.2,7.4 13.67,13.65 l 25.83,65.52 c 8.06,20.47 37.03,20.47 45.09,0"
         style="fill:#53c1e4;fill-opacity:1;fill-rule:nonzero;stroke:none"
         id="path967" /></g></g></svg>
